name dummy_motion_9_GC.mot
datacolumns 40
datarows 9
range 12.50000000 12.58000000
endheader
time	pelvis_rz	pelvis_rx	pelvis_ry	pelvis_tx	pelvis_ty	pelvis_tz	hip_flexion	hip_adduction	hip_rotation	knee_adduction	knee_rotation	knee_flexion	knee_tx	knee_ty	knee_tz	ankle_angle	subtalar_angle	hip_flexion_l	hip_adduction_l	hip_rotation_l	knee_adduction_l	knee_rotation_l	knee_flexion_l	knee_tx_l	knee_ty_l	knee_tz_l	ankle_angle_l	subtalar_angle_l	lumbar_extension	lumbar_bending	lumbar_rotation	arm_flex_r	arm_add_r	arm_rot_r	elbow_flex_r	arm_flex_l	arm_add_l	arm_rot_l	elbow_flex_l	
         12.50000000	          0.00000000	          0.00000000	          0.00000000	          0.00000000	          0.00000000	          0.00000000	        -18.61086199	          0.89253210	        -14.90269731	         -1.78958102	         -4.79263445	         12.04080932	          0.00796884	          0.05745826	          0.00413485	         13.76721312	         -5.73595881	        -34.39843551	         10.20453442	          6.81320998	          0.00000000	          0.00000000	        -10.79614859	          0.00000000	          0.04200000	          0.00000000	          9.44060252	         14.48769525	        -17.34954047	         12.82446491	          3.10813166	         -3.20707952	        -20.73378115	         21.97892457	         42.24365073	         18.80586393	        -18.10979777	         13.85693431	         23.71903960	
         12.51000000	          0.00000000	          0.00000000	          0.00000000	          0.00000000	          0.00000000	          0.00000000	         -1.11664527	          3.14499757	         -3.39325505	         -2.29856840	         -0.33617054	         -8.83181163	          0.00004735	          0.03966222	         -0.00791944	          5.84213042	         -7.23936027	         -4.50474029	         -3.93354280	         -7.62142117	          0.00000000	          0.00000000	        -73.63363116	          0.00000000	          0.04200000	          0.00000000	         -7.00034364	         -6.96552944	        -16.04889473	         -2.51347033	        -12.96335920	         -7.30541473	        -20.29813833	         55.39675503	         20.25426757	         -3.68167324	        -16.87794134	         60.76619102	         53.60551142	
         12.52000000	          0.00000000	          0.00000000	          0.00000000	          0.00000000	          0.00000000	          0.00000000	         28.82683989	        -10.26235263	          5.82431566	         -4.95302768	          0.30835099	          9.81369942	          0.00837831	          0.03054571	         -0.00343843	          0.71389378	        -15.07986499	         -0.18132821	         10.93534379	        -15.01596181	          0.00000000	          0.00000000	        -50.27471669	          0.00000000	          0.04200000	          0.00000000	          7.47635347	         -5.11197458	        -10.68151728	          6.91409584	         11.45035411	        -18.10712711	        -17.30608157	         59.03957564	         21.01172563	          0.11945274	        -19.15889211	         66.98549325	         20.19479099	
         12.53000000	          0.00000000	          0.00000000	          0.00000000	          0.00000000	          0.00000000	          0.00000000	         10.56000808	          0.34719816	          2.96979620	         -1.87145904	          0.46779793	         -6.17396059	          0.00865424	          0.05776526	          0.00130017	         26.50501824	         -5.97780280	          0.88823244	         11.42782203	          7.06222248	          0.00000000	          0.00000000	        -25.57296256	          0.00000000	          0.04200000	          0.00000000	         22.40231457	         10.58604565	        -11.84411626	          4.92499013	         -3.48022981	        -16.53959025	        -19.90430921	         10.80374711	          7.66243377	         -6.77095542	        -20.41318957	         20.82138289	         12.58533650	
         12.54000000	          0.00000000	          0.00000000	          0.00000000	          0.00000000	          0.00000000	          0.00000000	         18.92924243	        -15.00610166	          0.76142688	          1.61091726	         -4.57827564	        -26.93940435	         -0.00770105	          0.04951674	         -0.00549210	         14.08137082	          4.30812924	        -32.96052937	        -17.76269251	          0.37172192	          0.00000000	          0.00000000	        -60.98022405	          0.00000000	          0.04200000	          0.00000000	         -3.34322409	          7.61920341	        -16.50301693	         -6.80540952	          2.40409238	         16.16688433	        -19.89044543	         81.78470290	          5.89313486	         -4.31333941	        -16.30472275	          7.37291683	         55.65233167	
         12.55000000	          0.00000000	          0.00000000	          0.00000000	          0.00000000	          0.00000000	          0.00000000	         -8.61096245	        -14.83031729	         -0.44321138	          0.06922971	          3.11560093	          4.78801875	          0.00475601	          0.04300436	          0.00096635	         18.13526728	         -0.24556972	         18.64953767	          4.47036130	         -4.91056046	          0.00000000	          0.00000000	        -27.31311358	          0.00000000	          0.04200000	          0.00000000	         18.90614061	         16.28835643	        -11.32663225	          5.57331213	         -9.96145698	        -13.58934527	        -19.90565620	         67.82271808	         43.68946700	        -17.13850451	        -17.93529599	         22.08449648	         48.29211113	
         12.56000000	          0.00000000	          0.00000000	          0.00000000	          0.00000000	          0.00000000	          0.00000000	         -6.07462142	         -5.36097509	        -11.42723896	          3.78132352	          1.53743594	        -62.84032326	          0.00323646	          0.05241085	         -0.00652829	         22.47384248	         10.71888140	          8.06330067	          1.75829650	          2.71918135	          0.00000000	          0.00000000	        -66.38174997	          0.00000000	          0.04200000	          0.00000000	          8.87985375	         10.09548927	        -10.66518902	          5.13966969	          1.79572081	          5.12644839	        -18.43109234	         72.89756599	         33.04430400	         -9.42636733	        -19.11251417	         49.55483561	         43.49140317	
         12.57000000	          0.00000000	          0.00000000	          0.00000000	          0.00000000	          0.00000000	          0.00000000	          0.04074922	          4.67176419	        -16.40110474	         -4.23890755	          0.92959144	        -68.78407198	          0.00531619	          0.03184667	          0.00396205	          8.05776614	        -12.97056074	          3.98591588	          5.47014590	        -13.96072997	          0.00000000	          0.00000000	        -11.69694884	          0.00000000	          0.04200000	          0.00000000	          5.86657346	         -7.63736853	        -14.36967084	         13.77271291	          1.26434973	         15.04178077	        -17.78349005	         37.19305744	         16.77957771	          6.99272293	        -18.44267564	         11.82462596	         27.10005987	
         12.58000000	          0.00000000	          0.00000000	          0.00000000	          0.00000000	          0.00000000	          0.00000000	        -19.75502869	         13.52943331	         -6.24142107	          4.64393412	          2.20712110	        -40.52608417	         -0.00738733	          0.03650492	          0.00613191	          1.52808396	         13.26678353	         12.55550894	        -17.20276134	        -10.18235831	          0.00000000	          0.00000000	         -0.38572373	          0.00000000	          0.04200000	          0.00000000	          6.94199177	          6.37787843	        -19.10717975	         -5.57595659	        -14.08269069	         -8.88087224	        -19.79149978	         27.96671600	         31.78390228	          0.78745216	        -15.33217080	         54.62238101	         31.65228300	
